<mxfile host="app.diagrams.net" modified="2023-09-05T07:13:43.241Z" agent="Mozilla/5.0 (X11; Linux x86_64) AppleWebKit/537.36 (KHTML, like Gecko) Chrome/115.0.0.0 Safari/537.36" etag="oZiI2TD1O8UmXV0SlC2e" version="21.7.2" type="github">
  <diagram name="Page-1" id="c7558073-3199-34d8-9f00-42111426c3f3">
    <mxGraphModel dx="1434" dy="914" grid="1" gridSize="10" guides="1" tooltips="1" connect="1" arrows="1" fold="1" page="1" pageScale="1" pageWidth="826" pageHeight="1169" background="none" math="0" shadow="0">
      <root>
        <mxCell id="0" />
        <mxCell id="1" parent="0" />
        <mxCell id="2" value="&lt;p style=&quot;margin: 0px; margin-top: 4px; text-align: center; text-decoration: underline;&quot;&gt;&lt;strong&gt;ALSA uAPI&lt;br&gt;&lt;/strong&gt;&lt;/p&gt;&lt;hr&gt;&lt;p style=&quot;margin: 0px; margin-left: 8px;&quot;&gt;Most utilized&lt;/p&gt;&lt;p style=&quot;margin: 0px; margin-left: 8px;&quot;&gt;PipeWire uAPI&lt;/p&gt;&lt;p style=&quot;margin: 0px; margin-left: 8px;&quot;&gt;implementation&lt;br&gt;&lt;/p&gt;" style="verticalAlign=middle;align=center;overflow=fill;fontSize=12;fontFamily=Helvetica;html=1;rounded=1;fontStyle=1;strokeWidth=3;fillColor=#E6FFCC" parent="1" vertex="1">
          <mxGeometry x="236" y="236" width="110" height="90" as="geometry" />
        </mxCell>
        <mxCell id="3" value="alsa-utils" style="whiteSpace=wrap;align=center;verticalAlign=middle;fontStyle=1;strokeWidth=3;fillColor=#FFFFCC" parent="1" vertex="1">
          <mxGeometry x="291" y="126" width="90" height="60" as="geometry" />
        </mxCell>
        <UserObject label="Chromium" link="https://github.com/microsoft/wslg/issues/864" linkTarget="_blank" id="4">
          <mxCell style="whiteSpace=wrap;align=center;verticalAlign=middle;fontStyle=1;strokeWidth=3;fillColor=#FFFFCC" parent="1" vertex="1">
            <mxGeometry x="80" y="251" width="90" height="60" as="geometry" />
          </mxCell>
        </UserObject>
        <mxCell id="5" value="PipeWire Daemon" style="shape=process;whiteSpace=wrap;align=center;verticalAlign=middle;size=0.0475;fontStyle=1;strokeWidth=3;fillColor=#FFCCCC" parent="1" vertex="1">
          <mxGeometry x="200.99999999999991" y="391" width="400" height="50" as="geometry" />
        </mxCell>
        <mxCell id="6" value="&lt;p style=&quot;margin: 0px; margin-top: 4px; text-align: center; text-decoration: underline;&quot;&gt;&lt;strong&gt;PulseAudio uAPI&lt;br&gt;&lt;/strong&gt;&lt;/p&gt;&lt;hr&gt;&lt;p style=&quot;margin: 0px; margin-left: 8px;&quot;&gt;More granular&lt;/p&gt;&lt;p style=&quot;margin: 0px; margin-left: 8px;&quot;&gt;control than&lt;/p&gt;&lt;p style=&quot;margin: 0px; margin-left: 8px;&quot;&gt;ALSA uAPI&lt;br&gt;&lt;/p&gt;" style="verticalAlign=middle;align=center;overflow=fill;fontSize=12;fontFamily=Helvetica;html=1;rounded=1;fontStyle=1;strokeWidth=3;fillColor=#E6FFCC" parent="1" vertex="1">
          <mxGeometry x="394" y="171" width="110" height="90" as="geometry" />
        </mxCell>
        <UserObject label="&lt;p style=&quot;margin: 0px; margin-top: 4px; text-align: center; text-decoration: underline;&quot;&gt;&lt;strong&gt;Bandaids&lt;br&gt;&lt;/strong&gt;&lt;/p&gt;&lt;hr&gt;&lt;p style=&quot;margin: 0px; margin-left: 8px;&quot;&gt;Daemon hacks&lt;/p&gt;&lt;p style=&quot;margin: 0px; margin-left: 8px;&quot;&gt;for utilizing&lt;/p&gt;&lt;p style=&quot;margin: 0px; margin-left: 8px;&quot;&gt;userspace inits&lt;br&gt;&lt;/p&gt;" link="https://pipewire.pages.freedesktop.org/wireplumber/configuration/alsa.html#device-properties" id="7">
          <mxCell style="verticalAlign=middle;align=center;overflow=fill;fontSize=12;fontFamily=Helvetica;html=1;rounded=1;fontStyle=1;strokeWidth=3;fillColor=#E6FFCC" parent="1" vertex="1">
            <mxGeometry x="681" y="371" width="110" height="90" as="geometry" />
          </mxCell>
        </UserObject>
        <mxCell id="8" value="&lt;p style=&quot;margin: 0px; margin-top: 4px; text-align: center; text-decoration: underline;&quot;&gt;&lt;strong&gt;JACK uAPI&lt;br&gt;&lt;/strong&gt;&lt;/p&gt;&lt;hr&gt;&lt;p style=&quot;margin: 0px; margin-left: 8px;&quot;&gt;Mainly used for&lt;/p&gt;&lt;p style=&quot;margin: 0px; margin-left: 8px;&quot;&gt;complex audio&lt;/p&gt;&lt;p style=&quot;margin: 0px; margin-left: 8px;&quot;&gt;routing&lt;/p&gt;&lt;p style=&quot;margin: 0px; margin-left: 8px;&quot;&gt;pre-pipewire&lt;br&gt;&lt;/p&gt;" style="verticalAlign=middle;align=center;overflow=fill;fontSize=12;fontFamily=Helvetica;html=1;rounded=1;fontStyle=1;strokeWidth=3;fillColor=#E6FFCC" parent="1" vertex="1">
          <mxGeometry x="615" y="211" width="110" height="90" as="geometry" />
        </mxCell>
        <UserObject label="&lt;p style=&quot;margin: 0px; margin-top: 4px; text-align: center; text-decoration: underline;&quot;&gt;&lt;strong&gt;snd_soc_sof_sdw&lt;br&gt;&lt;/strong&gt;&lt;/p&gt;&lt;hr&gt;&lt;p style=&quot;margin: 0px; margin-left: 8px;&quot;&gt;SoundWire&lt;/p&gt;&lt;p style=&quot;margin: 0px; margin-left: 8px;&quot;&gt;sound driver&lt;br&gt;&lt;/p&gt;" link="https://docs.kernel.org/driver-api/soundwire/summary.html" linkTarget="_blank" id="9">
          <mxCell style="verticalAlign=middle;align=center;overflow=fill;fontSize=12;fontFamily=Helvetica;html=1;rounded=1;fontStyle=1;strokeWidth=3;fillColor=#E6FFCC" parent="1" vertex="1">
            <mxGeometry x="540" y="510" width="110" height="90" as="geometry" />
          </mxCell>
        </UserObject>
        <UserObject label="&lt;p style=&quot;margin: 0px; margin-top: 4px; text-align: center; text-decoration: underline;&quot;&gt;&lt;strong&gt;snd_hda_intel&lt;br&gt;&lt;/strong&gt;&lt;/p&gt;&lt;hr&gt;&lt;p style=&quot;margin: 0px; margin-left: 8px;&quot;&gt;Intel HD Audio&lt;/p&gt;&lt;p style=&quot;margin: 0px; margin-left: 8px;&quot;&gt;sound driver&lt;br&gt;&lt;/p&gt;" link="https://docs.kernel.org/sound/hd-audio/notes.html" linkTarget="_blank" id="10">
          <mxCell style="verticalAlign=middle;align=center;overflow=fill;fontSize=12;fontFamily=Helvetica;html=1;rounded=1;fontStyle=1;strokeWidth=3;fillColor=#E6FFCC" parent="1" vertex="1">
            <mxGeometry x="188.49999999999991" y="510" width="110" height="90" as="geometry" />
          </mxCell>
        </UserObject>
        <mxCell id="12" value="pavucontrol&#xa;pactl/pacmd" style="whiteSpace=wrap;align=center;verticalAlign=middle;fontStyle=1;strokeWidth=3;fillColor=#FFFFCC" parent="1" vertex="1">
          <mxGeometry x="561" y="12.000000000000021" width="90" height="60" as="geometry" />
        </mxCell>
        <mxCell id="14" value="WirePlumber" style="whiteSpace=wrap;align=center;verticalAlign=middle;fontStyle=1;strokeWidth=3;fillColor=#FFFFCC" parent="1" vertex="1">
          <mxGeometry x="47.99999999999997" y="503.4999999999999" width="90" height="60" as="geometry" />
        </mxCell>
        <mxCell id="36" value="" style="edgeStyle=none;noEdgeStyle=1;strokeColor=#990000;strokeWidth=2;entryX=0.9;entryY=-0.011;entryDx=0;entryDy=0;entryPerimeter=0;" parent="1" edge="1">
          <mxGeometry width="100" height="100" relative="1" as="geometry">
            <mxPoint x="325.6203012276926" y="186" as="sourcePoint" />
            <mxPoint x="325" y="235.01" as="targetPoint" />
          </mxGeometry>
        </mxCell>
        <mxCell id="37" value="" style="edgeStyle=none;noEdgeStyle=1;strokeColor=#990000;strokeWidth=2" parent="1" source="4" target="2" edge="1">
          <mxGeometry width="100" height="100" relative="1" as="geometry">
            <mxPoint x="280" y="190" as="sourcePoint" />
            <mxPoint x="380" y="90" as="targetPoint" />
          </mxGeometry>
        </mxCell>
        <mxCell id="11" value="&lt;p style=&quot;margin: 0px; margin-top: 4px; text-align: center; text-decoration: underline;&quot;&gt;&lt;strong&gt;snd_soc_*&lt;br&gt;&lt;/strong&gt;&lt;/p&gt;&lt;hr&gt;&lt;p style=&quot;margin: 0px; margin-left: 8px;&quot;&gt;Special SoC&lt;/p&gt;&lt;p style=&quot;margin: 0px; margin-left: 8px;&quot;&gt;sound drivers&lt;br&gt;&lt;/p&gt;" style="verticalAlign=middle;align=center;overflow=fill;fontSize=12;fontFamily=Helvetica;html=1;rounded=1;fontStyle=1;strokeWidth=3;fillColor=#E6FFCC" parent="1" vertex="1">
          <mxGeometry x="343.49999999999994" y="510" width="110" height="90" as="geometry" />
        </mxCell>
        <mxCell id="52" value="Audio&#xa;APIs" style="text;spacingTop=-5;align=center" parent="1" vertex="1">
          <mxGeometry x="190" y="244" width="23" height="29" as="geometry" />
        </mxCell>
        <mxCell id="53" value="Config&#xa;APIs&#xa;" style="text;spacingTop=-5;align=center" parent="1" vertex="1">
          <mxGeometry x="285" y="196" width="30" height="20" as="geometry" />
        </mxCell>
        <mxCell id="55" value="" style="edgeStyle=elbowEdgeStyle;elbow=horizontal;strokeColor=#990000;strokeWidth=2" parent="1" edge="1">
          <mxGeometry width="100" height="100" relative="1" as="geometry">
            <mxPoint x="298" y="391" as="sourcePoint" />
            <mxPoint x="298" y="326" as="targetPoint" />
            <Array as="points">
              <mxPoint x="298" y="370" />
            </Array>
          </mxGeometry>
        </mxCell>
        <mxCell id="56" value="" style="edgeStyle=elbowEdgeStyle;elbow=horizontal;strokeColor=#990000;strokeWidth=2" parent="1" edge="1">
          <mxGeometry width="100" height="100" relative="1" as="geometry">
            <mxPoint x="318" y="326" as="sourcePoint" />
            <mxPoint x="318" y="391" as="targetPoint" />
            <Array as="points">
              <mxPoint x="318" y="360" />
            </Array>
          </mxGeometry>
        </mxCell>
        <mxCell id="58" value="" style="edgeStyle=elbowEdgeStyle;elbow=horizontal;strokeColor=#990000;strokeWidth=2" parent="1" source="5" target="6" edge="1">
          <mxGeometry width="100" height="100" relative="1" as="geometry">
            <mxPoint x="380" y="370" as="sourcePoint" />
            <mxPoint x="480" y="270" as="targetPoint" />
            <Array as="points">
              <mxPoint x="440" y="310" />
            </Array>
          </mxGeometry>
        </mxCell>
        <mxCell id="59" value="" style="edgeStyle=elbowEdgeStyle;elbow=horizontal;strokeColor=#990000;strokeWidth=2" parent="1" source="6" target="5" edge="1">
          <mxGeometry width="100" height="100" relative="1" as="geometry">
            <mxPoint x="350" y="370" as="sourcePoint" />
            <mxPoint x="450" y="270" as="targetPoint" />
            <Array as="points">
              <mxPoint x="460" y="320" />
            </Array>
          </mxGeometry>
        </mxCell>
        <mxCell id="62" value="Config&#xa;APIs&#xa;" style="text;spacingTop=-5;align=center" parent="1" vertex="1">
          <mxGeometry x="481.0000000000001" y="106.00000000000003" width="30" height="20" as="geometry" />
        </mxCell>
        <mxCell id="63" value="Config&#xa;APIs&#xa;" style="text;spacingTop=-5;align=center" parent="1" vertex="1">
          <mxGeometry x="632" y="171.0000000000001" width="30" height="20" as="geometry" />
        </mxCell>
        <mxCell id="64" value="Device&#xa;&quot;init&quot;&#xa;" style="text;spacingTop=-5;align=center" parent="1" vertex="1">
          <mxGeometry x="791.0000000000001" y="211.0000000000001" width="30" height="20" as="geometry" />
        </mxCell>
        <mxCell id="65" value="" style="edgeStyle=orthogonalEdgeStyle;elbow=horizontal;strokeColor=#990000;strokeWidth=2" parent="1" source="12" edge="1">
          <mxGeometry width="100" height="100" relative="1" as="geometry">
            <mxPoint x="360" y="80.00000000000011" as="sourcePoint" />
            <mxPoint x="470" y="170" as="targetPoint" />
            <Array as="points">
              <mxPoint x="530" y="42" />
              <mxPoint x="530" y="100" />
              <mxPoint x="470" y="100" />
            </Array>
          </mxGeometry>
        </mxCell>
        <mxCell id="66" value="" style="edgeStyle=elbowEdgeStyle;elbow=vertical;strokeColor=#990000;strokeWidth=2" parent="1" target="8" edge="1">
          <mxGeometry width="100" height="100" relative="1" as="geometry">
            <mxPoint x="710" y="150" as="sourcePoint" />
            <mxPoint x="530" y="250" as="targetPoint" />
          </mxGeometry>
        </mxCell>
        <UserObject label="" link="https://gitlab.freedesktop.org/pipewire/pipewire/-/issues/1596" linkTarget="_blank" id="67">
          <mxCell style="edgeStyle=elbowEdgeStyle;elbow=horizontal;strokeColor=#990000;strokeWidth=2" parent="1" target="7" edge="1">
            <mxGeometry width="100" height="100" relative="1" as="geometry">
              <mxPoint x="760" y="40" as="sourcePoint" />
              <mxPoint x="660.0000000000002" y="360" as="targetPoint" />
              <Array as="points">
                <mxPoint x="780" y="271" />
              </Array>
            </mxGeometry>
          </mxCell>
        </UserObject>
        <mxCell id="68" value="" style="edgeStyle=elbowEdgeStyle;elbow=horizontal;strokeColor=#990000;strokeWidth=2" parent="1" source="8" target="5" edge="1">
          <mxGeometry width="100" height="100" relative="1" as="geometry">
            <mxPoint x="570" y="380" as="sourcePoint" />
            <mxPoint x="510" y="250" as="targetPoint" />
            <Array as="points">
              <mxPoint x="570" y="360" />
            </Array>
          </mxGeometry>
        </mxCell>
        <mxCell id="69" value="" style="edgeStyle=segmentEdgeStyle;strokeColor=#990000;strokeWidth=2" parent="1" source="5" target="8" edge="1">
          <mxGeometry width="100" height="100" relative="1" as="geometry">
            <mxPoint x="340" y="360" as="sourcePoint" />
            <mxPoint x="440" y="260" as="targetPoint" />
            <Array as="points">
              <mxPoint x="520" y="286" />
            </Array>
          </mxGeometry>
        </mxCell>
        <mxCell id="72" value="" style="edgeStyle=elbowEdgeStyle;elbow=vertical;strokeColor=#990000;strokeWidth=2" parent="1" source="5" target="7" edge="1">
          <mxGeometry width="100" height="100" relative="1" as="geometry">
            <mxPoint x="500" y="500" as="sourcePoint" />
            <mxPoint x="600" y="400" as="targetPoint" />
            <Array as="points">
              <mxPoint x="650" y="410" />
            </Array>
          </mxGeometry>
        </mxCell>
        <mxCell id="73" value="" style="edgeStyle=elbowEdgeStyle;elbow=vertical;strokeColor=#990000;strokeWidth=2" parent="1" source="7" target="5" edge="1">
          <mxGeometry width="100" height="100" relative="1" as="geometry">
            <mxPoint x="460" y="500" as="sourcePoint" />
            <mxPoint x="560" y="400" as="targetPoint" />
            <Array as="points">
              <mxPoint x="650" y="430" />
            </Array>
          </mxGeometry>
        </mxCell>
        <mxCell id="76" value="" style="edgeStyle=elbowEdgeStyle;elbow=horizontal;strokeColor=#990000;strokeWidth=2" parent="1" edge="1">
          <mxGeometry width="100" height="100" relative="1" as="geometry">
            <mxPoint x="575" y="510" as="sourcePoint" />
            <mxPoint x="575" y="441" as="targetPoint" />
            <Array as="points">
              <mxPoint x="575" y="470" />
            </Array>
          </mxGeometry>
        </mxCell>
        <mxCell id="77" value="" style="edgeStyle=elbowEdgeStyle;elbow=horizontal;strokeColor=#990000;strokeWidth=2" parent="1" source="5" target="9" edge="1">
          <mxGeometry width="100" height="100" relative="1" as="geometry">
            <mxPoint x="400" y="590" as="sourcePoint" />
            <mxPoint x="500" y="490" as="targetPoint" />
            <Array as="points">
              <mxPoint x="560" y="480" />
            </Array>
          </mxGeometry>
        </mxCell>
        <mxCell id="88" value="" style="edgeStyle=elbowEdgeStyle;elbow=horizontal;strokeColor=#990000;strokeWidth=2" parent="1" source="5" target="11" edge="1">
          <mxGeometry width="100" height="100" relative="1" as="geometry">
            <mxPoint x="50" y="500" as="sourcePoint" />
            <mxPoint x="150" y="400" as="targetPoint" />
            <Array as="points">
              <mxPoint x="390" y="470" />
            </Array>
          </mxGeometry>
        </mxCell>
        <mxCell id="89" value="" style="edgeStyle=elbowEdgeStyle;elbow=horizontal;strokeColor=#990000;strokeWidth=2" parent="1" source="11" target="5" edge="1">
          <mxGeometry width="100" height="100" relative="1" as="geometry">
            <mxPoint x="59.999999999999886" y="510" as="sourcePoint" />
            <mxPoint x="159.9999999999999" y="410" as="targetPoint" />
            <Array as="points">
              <mxPoint x="410" y="470" />
            </Array>
          </mxGeometry>
        </mxCell>
        <mxCell id="92" value="" style="edgeStyle=elbowEdgeStyle;elbow=horizontal;strokeColor=#990000;strokeWidth=2" parent="1" source="5" target="10" edge="1">
          <mxGeometry width="100" height="100" relative="1" as="geometry">
            <mxPoint x="30.000000000000114" y="500" as="sourcePoint" />
            <mxPoint x="130.0000000000001" y="400" as="targetPoint" />
            <Array as="points">
              <mxPoint x="250" y="470" />
            </Array>
          </mxGeometry>
        </mxCell>
        <mxCell id="93" value="" style="edgeStyle=elbowEdgeStyle;elbow=horizontal;strokeColor=#990000;strokeWidth=2" parent="1" source="10" target="5" edge="1">
          <mxGeometry width="100" height="100" relative="1" as="geometry">
            <mxPoint x="40" y="510" as="sourcePoint" />
            <mxPoint x="140" y="410" as="targetPoint" />
            <Array as="points">
              <mxPoint x="230" y="470" />
            </Array>
          </mxGeometry>
        </mxCell>
        <mxCell id="_4jMub0fH_prdepd_eTP-96" value="&lt;p style=&quot;margin: 0px; margin-top: 4px; text-align: center; text-decoration: underline;&quot;&gt;&lt;strong&gt;PipeWire uAPI&lt;br&gt;&lt;/strong&gt;&lt;/p&gt;&lt;hr&gt;&lt;p style=&quot;margin: 0px; margin-left: 8px;&quot;&gt;Utilized mostly&lt;/p&gt;&lt;p style=&quot;margin: 0px; margin-left: 8px;&quot;&gt;by internal&lt;/p&gt;&lt;p style=&quot;margin: 0px; margin-left: 8px;&quot;&gt;projects&lt;br&gt;&lt;/p&gt;" style="verticalAlign=middle;align=center;overflow=fill;fontSize=12;fontFamily=Helvetica;html=1;rounded=1;fontStyle=1;strokeWidth=3;fillColor=#E6FFCC" vertex="1" parent="1">
          <mxGeometry x="50" y="96" width="110" height="90" as="geometry" />
        </mxCell>
        <mxCell id="_4jMub0fH_prdepd_eTP-100" value="" style="edgeStyle=segmentEdgeStyle;strokeColor=#990000;strokeWidth=2;exitX=0.75;exitY=1;exitDx=0;exitDy=0;entryX=0.173;entryY=0.06;entryDx=0;entryDy=0;entryPerimeter=0;" edge="1" parent="1" source="_4jMub0fH_prdepd_eTP-96" target="5">
          <mxGeometry width="100" height="100" relative="1" as="geometry">
            <mxPoint x="50" y="323.5" as="sourcePoint" />
            <mxPoint x="145" y="390" as="targetPoint" />
            <Array as="points">
              <mxPoint x="133" y="230" />
              <mxPoint x="60" y="230" />
              <mxPoint x="60" y="340" />
              <mxPoint x="270" y="340" />
            </Array>
          </mxGeometry>
        </mxCell>
        <mxCell id="_4jMub0fH_prdepd_eTP-101" value="alsamixer" style="whiteSpace=wrap;align=center;verticalAlign=middle;fontStyle=1;strokeWidth=3;fillColor=#FFFFCC" vertex="1" parent="1">
          <mxGeometry x="414" y="12" width="90" height="60" as="geometry" />
        </mxCell>
        <mxCell id="_4jMub0fH_prdepd_eTP-102" value="alsaucm" style="whiteSpace=wrap;align=center;verticalAlign=middle;fontStyle=1;strokeWidth=3;fillColor=#FFFFCC" vertex="1" parent="1">
          <mxGeometry x="304" y="12" width="90" height="60" as="geometry" />
        </mxCell>
        <mxCell id="_4jMub0fH_prdepd_eTP-103" value="alsactl" style="whiteSpace=wrap;align=center;verticalAlign=middle;fontStyle=1;strokeWidth=3;fillColor=#FFFFCC" vertex="1" parent="1">
          <mxGeometry x="193" y="12" width="90" height="60" as="geometry" />
        </mxCell>
        <mxCell id="_4jMub0fH_prdepd_eTP-104" value="" style="edgeStyle=none;noEdgeStyle=1;strokeColor=#990000;strokeWidth=2;entryX=0;entryY=0.25;entryDx=0;entryDy=0;" edge="1" parent="1" target="3">
          <mxGeometry width="100" height="100" relative="1" as="geometry">
            <mxPoint x="270.5" y="72" as="sourcePoint" />
            <mxPoint x="270.5" y="122" as="targetPoint" />
            <Array as="points">
              <mxPoint x="270" y="141" />
            </Array>
          </mxGeometry>
        </mxCell>
        <mxCell id="_4jMub0fH_prdepd_eTP-106" value="" style="edgeStyle=none;noEdgeStyle=1;strokeColor=#990000;strokeWidth=2" edge="1" parent="1">
          <mxGeometry width="100" height="100" relative="1" as="geometry">
            <mxPoint x="361" y="74" as="sourcePoint" />
            <mxPoint x="361" y="124" as="targetPoint" />
          </mxGeometry>
        </mxCell>
        <mxCell id="_4jMub0fH_prdepd_eTP-107" value="" style="edgeStyle=none;noEdgeStyle=1;strokeColor=#990000;strokeWidth=2;" edge="1" parent="1">
          <mxGeometry width="100" height="100" relative="1" as="geometry">
            <mxPoint x="423.5" y="72" as="sourcePoint" />
            <mxPoint x="380" y="140" as="targetPoint" />
            <Array as="points">
              <mxPoint x="424" y="140" />
            </Array>
          </mxGeometry>
        </mxCell>
        <mxCell id="_4jMub0fH_prdepd_eTP-108" value="" style="edgeStyle=segmentEdgeStyle;strokeColor=#990000;strokeWidth=2;entryX=0.573;entryY=1.022;entryDx=0;entryDy=0;entryPerimeter=0;" edge="1" parent="1" target="_4jMub0fH_prdepd_eTP-96">
          <mxGeometry width="100" height="100" relative="1" as="geometry">
            <mxPoint x="250" y="390" as="sourcePoint" />
            <mxPoint x="120" y="190" as="targetPoint" />
            <Array as="points">
              <mxPoint x="250" y="360" />
              <mxPoint x="33" y="360" />
              <mxPoint x="33" y="210" />
              <mxPoint x="113" y="210" />
            </Array>
          </mxGeometry>
        </mxCell>
        <mxCell id="_4jMub0fH_prdepd_eTP-109" value="helvum" style="whiteSpace=wrap;align=center;verticalAlign=middle;fontStyle=1;strokeWidth=3;fillColor=#FFFFCC" vertex="1" parent="1">
          <mxGeometry x="12" y="12" width="90" height="60" as="geometry" />
        </mxCell>
        <mxCell id="_4jMub0fH_prdepd_eTP-110" value="" style="edgeStyle=none;noEdgeStyle=1;strokeColor=#990000;strokeWidth=2;entryX=0;entryY=0.5;entryDx=0;entryDy=0;" edge="1" parent="1" target="_4jMub0fH_prdepd_eTP-96">
          <mxGeometry width="100" height="100" relative="1" as="geometry">
            <mxPoint x="23.5" y="71" as="sourcePoint" />
            <mxPoint x="44" y="140" as="targetPoint" />
            <Array as="points">
              <mxPoint x="23" y="140" />
            </Array>
          </mxGeometry>
        </mxCell>
        <mxCell id="_4jMub0fH_prdepd_eTP-111" value="pw-utils" style="whiteSpace=wrap;align=center;verticalAlign=middle;fontStyle=1;strokeWidth=3;fillColor=#FFFFCC" vertex="1" parent="1">
          <mxGeometry x="171" y="146" width="90" height="60" as="geometry" />
        </mxCell>
        <mxCell id="_4jMub0fH_prdepd_eTP-112" value="" style="edgeStyle=none;noEdgeStyle=1;strokeColor=#990000;strokeWidth=2;entryX=1;entryY=0.25;entryDx=0;entryDy=0;exitX=0.433;exitY=-0.017;exitDx=0;exitDy=0;exitPerimeter=0;" edge="1" parent="1" source="_4jMub0fH_prdepd_eTP-111" target="_4jMub0fH_prdepd_eTP-96">
          <mxGeometry width="100" height="100" relative="1" as="geometry">
            <mxPoint x="210" y="140" as="sourcePoint" />
            <mxPoint x="234" y="165" as="targetPoint" />
            <Array as="points">
              <mxPoint x="210" y="119" />
            </Array>
          </mxGeometry>
        </mxCell>
        <mxCell id="_4jMub0fH_prdepd_eTP-113" value="Config&#xa;APIs&#xa;" style="text;spacingTop=-5;align=center" vertex="1" parent="1">
          <mxGeometry x="180" y="89" width="30" height="20" as="geometry" />
        </mxCell>
        <mxCell id="_4jMub0fH_prdepd_eTP-114" value="Config APIs&#xa;" style="text;spacingTop=-5;align=center" vertex="1" parent="1">
          <mxGeometry x="24" y="78" width="70" height="20" as="geometry" />
        </mxCell>
        <mxCell id="_4jMub0fH_prdepd_eTP-116" value="Omniverse" style="whiteSpace=wrap;align=center;verticalAlign=middle;fontStyle=1;strokeWidth=3;fillColor=#FFFFCC" vertex="1" parent="1">
          <mxGeometry x="561" y="89.00000000000003" width="90" height="60" as="geometry" />
        </mxCell>
        <mxCell id="_4jMub0fH_prdepd_eTP-117" value="" style="edgeStyle=none;noEdgeStyle=1;strokeColor=#990000;strokeWidth=2;entryX=1.018;entryY=0.344;entryDx=0;entryDy=0;entryPerimeter=0;" edge="1" parent="1" target="6">
          <mxGeometry width="100" height="100" relative="1" as="geometry">
            <mxPoint x="590" y="150" as="sourcePoint" />
            <mxPoint x="530" y="217" as="targetPoint" />
            <Array as="points">
              <mxPoint x="590" y="202" />
            </Array>
          </mxGeometry>
        </mxCell>
        <mxCell id="_4jMub0fH_prdepd_eTP-118" value="Audio&#xa;APIs" style="text;spacingTop=-5;align=center" vertex="1" parent="1">
          <mxGeometry x="530.0000000000001" y="206.00000000000003" width="30" height="20" as="geometry" />
        </mxCell>
        <mxCell id="_4jMub0fH_prdepd_eTP-119" value="Some poor&#xa;soul&#39;s patchbay scripts pre-pipewire&#xa;" style="whiteSpace=wrap;align=center;verticalAlign=middle;fontStyle=1;strokeWidth=3;fillColor=#FFFFCC;fontSize=10;" vertex="1" parent="1">
          <mxGeometry x="670" y="89.00000000000003" width="90" height="60" as="geometry" />
        </mxCell>
        <UserObject label="rt715 ALSA UCM config-based init" link="https://github.com/alsa-project/alsa-ucm-conf/blame/d42e1d149ba14084617819b85ef3cb824d177112/ucm2/codecs/rt715/init.conf#L3-L8" linkTarget="_blank" id="_4jMub0fH_prdepd_eTP-121">
          <mxCell style="whiteSpace=wrap;align=center;verticalAlign=middle;fontStyle=1;strokeWidth=3;fillColor=#FFFFCC" vertex="1" parent="1">
            <mxGeometry x="669" y="12.000000000000021" width="90" height="60" as="geometry" />
          </mxCell>
        </UserObject>
        <UserObject label="&lt;p style=&quot;margin: 0px; margin-top: 4px; text-align: center; text-decoration: underline;&quot;&gt;&lt;strong&gt;Session Manager&lt;br&gt;&lt;/strong&gt;&lt;/p&gt;&lt;hr&gt;&lt;p style=&quot;margin: 0px; margin-left: 8px;&quot;&gt;Enables start-up&lt;/p&gt;&lt;p style=&quot;margin: 0px; margin-left: 8px;&quot;&gt;related daemon&lt;/p&gt;&lt;p style=&quot;margin: 0px; margin-left: 8px;&quot;&gt;management&lt;br&gt;&lt;/p&gt;" link="https://pipewire.pages.freedesktop.org/wireplumber/configuration/alsa.html#device-properties" id="_4jMub0fH_prdepd_eTP-122">
          <mxCell style="verticalAlign=middle;align=center;overflow=fill;fontSize=12;fontFamily=Helvetica;html=1;rounded=1;fontStyle=1;strokeWidth=3;fillColor=#E6FFCC" vertex="1" parent="1">
            <mxGeometry x="15" y="371" width="110" height="90" as="geometry" />
          </mxCell>
        </UserObject>
        <mxCell id="_4jMub0fH_prdepd_eTP-124" value="" style="edgeStyle=elbowEdgeStyle;elbow=vertical;strokeColor=#990000;strokeWidth=2" edge="1" parent="1">
          <mxGeometry width="100" height="100" relative="1" as="geometry">
            <mxPoint x="126" y="415.5" as="sourcePoint" />
            <mxPoint x="201" y="415.5" as="targetPoint" />
            <Array as="points">
              <mxPoint x="175" y="415.5" />
            </Array>
          </mxGeometry>
        </mxCell>
        <mxCell id="_4jMub0fH_prdepd_eTP-125" value="PipeWire&#xa;Media Session&#xa;" style="whiteSpace=wrap;align=center;verticalAlign=middle;fontStyle=1;strokeWidth=3;fillColor=#FFFFCC" vertex="1" parent="1">
          <mxGeometry x="9.999999999999972" y="578.9999999999999" width="90" height="60" as="geometry" />
        </mxCell>
        <mxCell id="_4jMub0fH_prdepd_eTP-127" value="" style="edgeStyle=elbowEdgeStyle;elbow=horizontal;strokeColor=#990000;strokeWidth=2;exitX=0.156;exitY=0.033;exitDx=0;exitDy=0;exitPerimeter=0;" edge="1" parent="1">
          <mxGeometry width="100" height="100" relative="1" as="geometry">
            <mxPoint x="34" y="461" as="sourcePoint" />
            <mxPoint x="34.039999999999964" y="580.98" as="targetPoint" />
            <Array as="points">
              <mxPoint x="34" y="490" />
            </Array>
          </mxGeometry>
        </mxCell>
        <mxCell id="_4jMub0fH_prdepd_eTP-128" value="" style="edgeStyle=elbowEdgeStyle;elbow=horizontal;strokeColor=#990000;strokeWidth=2" edge="1" parent="1">
          <mxGeometry width="100" height="100" relative="1" as="geometry">
            <mxPoint x="92.5" y="461" as="sourcePoint" />
            <mxPoint x="93" y="500" as="targetPoint" />
            <Array as="points">
              <mxPoint x="92.5" y="490" />
            </Array>
          </mxGeometry>
        </mxCell>
      </root>
    </mxGraphModel>
  </diagram>
</mxfile>
